HIERARCHY
ROOT Hips
{
	OFFSET -14.64140 90.27770 -84.91600
	CHANNELS 6 Xposition Yposition Zposition Zrotation Xrotation Yrotation
	JOINT Spine
	{
		OFFSET 0.00000 13.20850 -1.60436
		CHANNELS 3 Zrotation Xrotation Yrotation
		JOINT Spine1
		{
			OFFSET 0.00000 8.61716 0.00000
			CHANNELS 3 Zrotation Xrotation Yrotation
			JOINT Spine2
			{
				OFFSET 0.00000 8.61717 0.00000
				CHANNELS 3 Zrotation Xrotation Yrotation
				JOINT Spine3
				{
					OFFSET 0.00000 8.61717 0.00000
					CHANNELS 3 Zrotation Xrotation Yrotation
					JOINT Neck
					{
						OFFSET 0.00000 11.07920 1.10792
						CHANNELS 3 Zrotation Xrotation Yrotation
						JOINT Neck1
						{
							OFFSET 0.00000 7.08032 0.00000
							CHANNELS 3 Zrotation Xrotation Yrotation
							JOINT Head
							{
								OFFSET 0.00000 7.08031 0.00000
								CHANNELS 3 Zrotation Xrotation Yrotation
								End site
								{
									OFFSET 0.00000 0.00000 0.00000
								}
							}
						}
					}
					JOINT RightShoulder
					{
						OFFSET -0.01000 7.91373 5.19711
						CHANNELS 3 Zrotation Xrotation Yrotation
						JOINT RightArm
						{
							OFFSET -18.41580 0.00000 0.00000
							CHANNELS 3 Zrotation Xrotation Yrotation
							JOINT RightForeArm
							{
								OFFSET -29.11090 0.00000 0.00000
								CHANNELS 3 Zrotation Xrotation Yrotation
								JOINT RightHand
								{
									OFFSET -24.65040 0.00000 0.00000
									CHANNELS 3 Zrotation Xrotation Yrotation
									JOINT RightHandThumb1
									{
										OFFSET -5.35114 -0.85590 3.97906
										CHANNELS 3 Zrotation Xrotation Yrotation
										JOINT RightHandThumb2
										{
											OFFSET -4.52789 0.00000 0.00000
											CHANNELS 3 Zrotation Xrotation Yrotation
											JOINT RightHandThumb3
											{
												OFFSET -2.46976 0.00000 0.00000
												CHANNELS 3 Zrotation Xrotation Yrotation
												End site
												{
													OFFSET 0.00000 0.00000 0.00000
												}
											}
										}
									}
									JOINT RightHandIndex1
									{
										OFFSET -14.26970 0.00000 2.88139
										CHANNELS 3 Zrotation Xrotation Yrotation
										JOINT RightHandIndex2
										{
											OFFSET -5.48836 0.00000 0.00000
											CHANNELS 3 Zrotation Xrotation Yrotation
											JOINT RightHandIndex3
											{
												OFFSET -3.01859 0.00000 0.00000
												CHANNELS 3 Zrotation Xrotation Yrotation
												End site
												{
													OFFSET 0.00000 0.00000 0.00000
												}
											}
										}
									}
									JOINT RightHandMiddle1
									{
										OFFSET -14.26970 0.00000 -0.09147
										CHANNELS 3 Zrotation Xrotation Yrotation
										JOINT RightHandMiddle2
										{
											OFFSET -6.17441 0.00000 0.00000
											CHANNELS 3 Zrotation Xrotation Yrotation
											JOINT RightHandMiddle3
											{
												OFFSET -3.56743 0.00000 0.00000
												CHANNELS 3 Zrotation Xrotation Yrotation
												End site
												{
													OFFSET 0.00000 0.00000 0.00000
												}
											}
										}
									}
									JOINT RightHandRing1
									{
										OFFSET -12.69180 0.00000 -3.06433
										CHANNELS 3 Zrotation Xrotation Yrotation
										JOINT RightHandRing2
										{
											OFFSET -5.62556 0.00000 0.00000
											CHANNELS 3 Zrotation Xrotation Yrotation
											JOINT RightHandRing3
											{
												OFFSET -3.56744 0.00000 0.00000
												CHANNELS 3 Zrotation Xrotation Yrotation
												End site
												{
													OFFSET 0.00000 0.00000 0.00000
												}
											}
										}
									}
									JOINT RightHandPinky1
									{
										OFFSET -11.11390 0.00000 -6.03719
										CHANNELS 3 Zrotation Xrotation Yrotation
										JOINT RightHandPinky2
										{
											OFFSET -4.52789 0.00000 0.00000
											CHANNELS 3 Zrotation Xrotation Yrotation
											JOINT RightHandPinky3
											{
												OFFSET -2.46976 0.00000 0.00000
												CHANNELS 3 Zrotation Xrotation Yrotation
												End site
												{
													OFFSET 0.00000 0.00000 0.00000
												}
											}
										}
									}
								}
							}
						}
					}
					JOINT LeftShoulder
					{
						OFFSET 0.01000 7.91373 5.19711
						CHANNELS 3 Zrotation Xrotation Yrotation
						JOINT LeftArm
						{
							OFFSET 18.41580 0.00000 0.00000
							CHANNELS 3 Zrotation Xrotation Yrotation
							JOINT LeftForeArm
							{
								OFFSET 29.11090 0.00000 0.00000
								CHANNELS 3 Zrotation Xrotation Yrotation
								JOINT LeftHand
								{
									OFFSET 24.65040 0.00000 0.00000
									CHANNELS 3 Zrotation Xrotation Yrotation
									JOINT LeftHandThumb1
									{
										OFFSET 5.35114 -0.85590 3.97906
										CHANNELS 3 Zrotation Xrotation Yrotation
										JOINT LeftHandThumb2
										{
											OFFSET 4.52789 0.00000 0.00000
											CHANNELS 3 Zrotation Xrotation Yrotation
											JOINT LeftHandThumb3
											{
												OFFSET 2.46977 0.00000 0.00000
												CHANNELS 3 Zrotation Xrotation Yrotation
												End site
												{
													OFFSET 0.00000 0.00000 0.00000
												}
											}
										}
									}
									JOINT LeftHandIndex1
									{
										OFFSET 14.26970 0.00000 2.88139
										CHANNELS 3 Zrotation Xrotation Yrotation
										JOINT LeftHandIndex2
										{
											OFFSET 5.48836 0.00000 0.00000
											CHANNELS 3 Zrotation Xrotation Yrotation
											JOINT LeftHandIndex3
											{
												OFFSET 3.01859 0.00000 0.00000
												CHANNELS 3 Zrotation Xrotation Yrotation
												End site
												{
													OFFSET 0.00000 0.00000 0.00000
												}
											}
										}
									}
									JOINT LeftHandMiddle1
									{
										OFFSET 14.26970 0.00000 -0.09147
										CHANNELS 3 Zrotation Xrotation Yrotation
										JOINT LeftHandMiddle2
										{
											OFFSET 6.17440 0.00000 0.00000
											CHANNELS 3 Zrotation Xrotation Yrotation
											JOINT LeftHandMiddle3
											{
												OFFSET 3.56744 0.00000 0.00000
												CHANNELS 3 Zrotation Xrotation Yrotation
												End site
												{
													OFFSET 0.00000 0.00000 0.00000
												}
											}
										}
									}
									JOINT LeftHandRing1
									{
										OFFSET 12.69180 0.00000 -3.06433
										CHANNELS 3 Zrotation Xrotation Yrotation
										JOINT LeftHandRing2
										{
											OFFSET 5.62556 0.00000 0.00000
											CHANNELS 3 Zrotation Xrotation Yrotation
											JOINT LeftHandRing3
											{
												OFFSET 3.56744 0.00000 0.00000
												CHANNELS 3 Zrotation Xrotation Yrotation
												End site
												{
													OFFSET 0.00000 0.00000 0.00000
												}
											}
										}
									}
									JOINT LeftHandPinky1
									{
										OFFSET 11.11390 0.00000 -6.03719
										CHANNELS 3 Zrotation Xrotation Yrotation
										JOINT LeftHandPinky2
										{
											OFFSET 4.52789 0.00000 0.00000
											CHANNELS 3 Zrotation Xrotation Yrotation
											JOINT LeftHandPinky3
											{
												OFFSET 2.46976 0.00000 0.00000
												CHANNELS 3 Zrotation Xrotation Yrotation
												End site
												{
													OFFSET 0.00000 0.00000 0.00000
												}
											}
										}
									}
								}
							}
						}
					}
					JOINT pCube4
					{
						OFFSET 0.00000 10.91090 1.10792
						CHANNELS 3 Zrotation Xrotation Yrotation
						End site
						{
							OFFSET 0.00000 0.00000 0.00000
						}
					}
				}
			}
		}
	}
	JOINT RightUpLeg
	{
		OFFSET -9.98441 0.00000 0.00000
		CHANNELS 3 Zrotation Xrotation Yrotation
		JOINT RightLeg
		{
			OFFSET 0.00000 -42.11790 0.00000
			CHANNELS 3 Zrotation Xrotation Yrotation
			JOINT RightFoot
			{
				OFFSET 0.00000 -45.00020 -0.00001
				CHANNELS 3 Zrotation Xrotation Yrotation
				JOINT RightForeFoot
				{
					OFFSET 0.00000 -3.74820 0.00000
					CHANNELS 3 Zrotation Xrotation Yrotation
					JOINT RightToeBase
					{
						OFFSET 0.00000 0.06325 14.43120
						CHANNELS 3 Zrotation Xrotation Yrotation
						End site
						{
							OFFSET 0.00000 0.00000 0.00000
						}
					}
				}
			}
		}
	}
	JOINT LeftUpLeg
	{
		OFFSET 9.98441 0.00000 0.00000
		CHANNELS 3 Zrotation Xrotation Yrotation
		JOINT LeftLeg
		{
			OFFSET 0.00000 -42.11800 0.00000
			CHANNELS 3 Zrotation Xrotation Yrotation
			JOINT LeftFoot
			{
				OFFSET 0.00000 -45.00070 0.00000
				CHANNELS 3 Zrotation Xrotation Yrotation
				JOINT LeftForeFoot
				{
					OFFSET 0.00000 -3.74824 0.00000
					CHANNELS 3 Zrotation Xrotation Yrotation
					JOINT LeftToeBase
					{
						OFFSET 0.00000 0.06325 14.43110
						CHANNELS 3 Zrotation Xrotation Yrotation
						End site
						{
							OFFSET 0.00000 0.00000 0.00000
						}
					}
				}
			}
		}
	}
}
MOTION
Frames: 4
Frame Time: 0.050000
0.005880771290152525 -0.04684075562498369 -0.004504272505130318 0.04273993761212694 -0.00998169557817518 -0.0026988062570943274 -1.3249920683329 0.7676263156560988 -1.2566978316628694 -0.14023684079634788 3.8373910800835986 0.2563950392095495 -0.553294330675141 -1.8847884668157102 0.5815053944660045 -1.092980730066563 -1.2371582137960468 -0.39187811816431095 -0.4578423384460075 12.145803735851315 -0.5401827286129548 0.5919926781743418 -1.4152948994114802 -1.803859123092602 0.969964554023105 -17.28034237869642 -0.23689475492907094 0.06262147710178333 0.6936739494682167 -14.753339258777903 73.98781093802975 7.821964185395445 4.004286812685556 28.28051456667761 16.146253181958624 101.94165789053397 27.73964800401347 -0.2902693736862004 -5.24366824933708 4.5063971492718675 -0.10681204124856195 -1.5979069273140272 0.021659911318725016 0.01950619728823263 -56.20660029857644 -0.036581164713714906 0.017913138140890756 -56.24904661491691 -38.80806153060002 -0.023942267667635363 -0.020613682841878818 0.042350708793787675 0.015595641222064001 -0.02768468863718232 -0.008389206877031506 0.04270504886911061 -0.03446362882529418 -36.650906146003344 0.017028969066916824 0.03131807328041202 -0.023385065810448507 0.006215900134401372 -0.0021731879579816944 0.013456626751504658 0.00659083449287956 0.037948275914671516 -19.728180946469745 0.012779503040671977 -0.04160902163650492 -0.04677380493964449 -0.021898254610026875 0.002816009224377925 -0.01558713311985828 0.010406496687110928 0.005415213204542935 24.045715352151976 0.03606569033228603 -0.003350097578203139 28.837728973641628 -0.012576070288458228 -0.030212739352578205 28.849010820500855 -0.01738467400493984 0.018730444261707793 4.392630787927676 1.4096263240881977 13.876114739676188 -79.32739642945205 13.756978728855254 -10.16330850793413 -62.19748996561921 23.127445747119516 -108.74707760053218 -29.623404571250013 3.7205903779633798 -1.5048528184727916 -0.45498395567502803 0.07497415891220613 -8.148300562579813 -0.02092004279215683 0.033630831249099165 44.57220448960194 -0.03136863007250439 -0.03660878106435811 44.56809209562721 12.455997981603213 -0.0030295733944640958 0.01915730298180334 -0.024032576384146638 -0.023928341964165784 -0.010030474661446437 -0.04321507700831398 -0.024817725694256696 0.01766963499570532 11.133692474304791 0.03414682381809476 -0.0023805447106138924 -0.04821778779679609 0.03562590282165534 -0.006166448528314882 0.04467844469215701 0.0017014827254382416 -0.034568275169003425 4.775920262491654 0.025132292366098454 -0.03875961690774292 -0.049148195360109614 -0.016143731189171628 -0.005523825626692182 -0.03030293180366396 0.009117970891107097 0.01687056428200678 -5.609096376788172 -0.04544365400429602 -0.00796775807062935 -6.720885727469628 0.013843844158102773 0.042953196001339816 -6.7261525763754 -0.003897949221460297 0.04667649462457127 0.032859806627326134 -0.039973640050504355 -0.016158641743378867 8.043422169201214 3.4986877093022275 -19.201760217728022 -0.009135850080627476 10.35949392044711 0.03312870249890105 -5.629472538538997 -15.634269166059694 3.1683088079390167 -0.049773942065926335 -0.03705693536387615 0.02403137709579577 -0.02183806077757009 4.7075223113555085 -0.03339283867616207 12.493452964321847 -8.280120920433742 6.8372800122591 -0.002324324051423274 46.39696568002477 0.03430519513041109 -4.2933285247080395 -14.757311457330207 -3.8156829480361436 0.0031662971217015856 -0.03580386021128043 0.0179181450016825 -0.02754252459213809 -10.754355425619652 -0.000670722490331691 
0.009756862220825235 -0.03849015783212137 -0.01045435881219249 -0.01740774006992123 0.03459194858812869 0.0332432734770542 -1.4565654015151859 0.997613218855317 -1.228495642168527 -0.2116228107028648 3.8140837681774857 0.2547314253587877 -0.5857340164797085 -1.8300779173433197 0.5502794848819712 -1.11825591307164 -1.1993234118652487 -0.3855171761256506 -0.48607086823794415 12.061719734824422 -0.40626333359429234 0.5837112550482711 -1.4587043905009778 -1.4642539386485087 0.9234739168488982 -17.293369492171117 -0.14387207958762915 0.3009806800602289 0.6244803394764139 -14.640820842241855 73.75796610408847 8.206769440342553 3.797328108260693 25.696935572932485 16.3804022895418 100.29062310434583 27.765705238466477 -0.29130614267711935 -4.892138736476855 4.52771162626085 -0.08455484300078062 -1.5517266691170457 0.03503271613707544 -0.03699113440431729 -56.27369556786354 -0.0006575282769591324 0.0438907039969835 -56.20794287905679 -38.72222143567578 -0.004645408468546895 0.021820307318059284 -0.014531893239396035 -0.03936170062886783 0.0036565078293717213 0.03946029562302402 0.033119694094926204 0.02899778732903907 -36.71786635008662 0.000637805334851176 0.04433992379465347 -0.018791127753699996 -0.00715869809973188 -0.008597319687846425 0.03375676604506186 0.022543703694205587 -0.037653013375937024 -19.773646453354175 -0.01329808066741063 -0.034140531613827706 0.027997277962943695 -0.0357109190590237 -0.039651855531238435 -0.0026883413140221754 0.030823967383363834 -0.014024104980640644 24.08735852451028 -0.010277891025480662 0.043269040872172766 28.82203552867424 0.019080170994701114 -0.0023093368836917608 28.8579285993755 -0.048910320270790245 -0.025571364759327548 4.1197853444988155 1.3559065014475513 13.763252029708964 -78.75049094096536 14.55216848761767 -10.097155781850187 -58.030534337553036 22.75610442499804 -106.043687297413 -30.261449220231153 2.904518234172227 -0.9170407046074529 -0.5092455033628855 0.04595518296384124 -8.168922930756807 0.027001939168966416 -0.013387238416255193 44.6004766079243 0.014716542101394989 0.018803764296847596 44.57210856397201 12.428823088178035 -0.026986955457096184 -0.011759180639080574 0.04011125884601497 -0.02463595866148235 -0.020053296294441143 0.03573611736343241 0.022991047257204654 -0.010697225038728277 11.118709355972412 -0.028078172151904477 -0.03892618822287533 -0.009171035674091393 0.0480788442831201 0.024271039234421147 -0.04578254986106216 -0.01831248707582865 -0.016566294413082824 4.769356914052234 0.013965739521125597 0.019473890820686023 -0.0072543452393830895 0.0375927556885166 -0.02187003796210987 -0.01509216513132452 -0.004062252093909451 0.015373727721917814 -5.630694415986507 0.01923594743761344 -0.01737723264174033 -6.749632525740785 0.018228804441898155 -0.017375669567605848 -6.703777442046268 0.03771239205232265 0.02088975685540902 -0.03387594622638629 0.022957148550383187 -0.033422532880015156 8.081822654650631 3.495560512179832 -19.173951410999024 0.01983789159659725 10.412330513250572 0.03666855459412656 -5.61006899647613 -15.621229785685664 3.2321735895516728 -0.009515813437077775 -0.012387077374003533 0.006441617709242785 -0.02346096325032638 4.668911045715882 0.04591237270438707 12.422887688596866 -8.285723721395563 6.92198434872654 -0.014412605244069407 46.346810425711254 -0.007142685547994165 -4.326427143971491 -14.732298172754628 -3.824769973157918 -0.012006424221853903 -0.016817004442557598 -0.00374213040857607 0.04423553515579705 -10.720224023144775 0.015435383267224531 
0.03316537983931376 -0.01780463009846894 -0.040659443697046986 0.04904459157049415 -0.005563592843488539 0.024385945759338338 -1.2021680346272707 1.2366261065254023 -1.2437802373763203 -0.20329440791247377 3.767196226202038 0.2475189018299452 -0.5615464298928803 -1.7518394094720457 0.6018180538154716 -1.1633205081774225 -1.1533064283535277 -0.4293940145984046 -0.5555613849955469 11.877252689761107 -0.24065253079529997 0.5422669251161321 -1.4269865862178328 -1.1252356505008678 0.7939310667201201 -17.237340673686813 -0.16788813022939586 0.14835254004319 0.7119792316486585 -14.629363578110542 73.92709655806918 9.30250781642536 3.0871010826460807 22.894521787605555 16.27886130554998 97.2584904509547 27.72480780621627 -0.30279482760095594 -4.92495608505321 4.515597558767649 -0.10545847718357701 -1.619811364162225 -0.03827039537140938 -0.01848139480586455 -56.224314423938026 0.03742233801169444 -0.0168822068547306 -56.273330134374945 -38.75921780068314 0.015593466637202373 0.017235858005793057 -0.04736875453281662 -0.015606609416169632 0.01643459321165991 0.025238961277452995 -0.04874731002047677 -0.006879748777175017 -36.721508286655265 -8.89793660250202e-05 0.04214272207214074 -0.012102693033883161 -0.027233274712293358 0.0029542371817218205 0.004131813600838836 0.013678471315453305 -0.03279505219684009 -19.76316874310957 -0.003790492184965556 -0.029207712515268932 0.038141988817076714 -0.03754025619301948 0.02141049129548067 -0.002855525615981989 -0.008092513119457556 0.04450923206414849 24.076649666514463 -0.008765144343500406 -0.012236268492154881 28.890818606033626 0.0025694371824248633 0.03256246441303969 28.821208367015526 0.012918058491098151 -0.016308906195635395 4.27117880166071 1.468528991178188 13.781365252824457 -78.15303279795522 15.952422458701298 -10.067272008226418 -53.64421282035258 21.97959588393665 -102.77365789366937 -30.945237656691408 1.2316073492922204 0.42011962616509435 -0.5211249911459359 0.06454241137996049 -8.126765509955723 -0.0003201259366207146 0.0030023541193183122 44.526479287074935 0.04922243911210516 -0.033580495432421725 44.56018933649706 12.411815534961484 -0.011027230795981842 -0.033251752081109816 0.001773428168080748 0.020377277736895603 0.029726932922293198 -0.03259792851221557 0.0226004459731967 0.04518495400918219 11.112589632010819 -0.022338731683896162 0.007527437512279764 -0.046073064044448685 -0.002909713123819763 0.004077767363017013 -0.04738207497422533 -0.02168283474652706 0.04092882922222152 4.742428168937585 0.013049719066939747 -0.04205600219787634 -0.020045429721173718 -0.048521181165677135 0.04176908517893091 -0.03696170477684733 -0.021954312053189488 0.028805143992623843 -5.648228942807545 -0.044502758924423326 -0.0010246155142743507 -6.71203533185002 -0.031688660160130916 -0.0009004164147221956 -6.707815565775482 0.048841299076561595 -0.016943151213054838 0.01448181164728328 -0.04425264562757626 0.0052898472921629235 8.02021449217903 3.5252961541422874 -19.22035900654122 0.027915899640666982 10.429860540066858 -0.028895270686342327 -5.61631157471544 -15.614213264615083 3.230028557804067 -0.007730072233724909 0.004687717687660177 0.04199274995893704 -0.009327172359930323 4.65064617506424 0.03926466008071171 12.457501551433818 -8.227558501773562 6.8864257768312935 0.024446816139166983 46.42221408719137 -0.001450283956851554 -4.325498025638908 -14.758403365660655 -3.877940524389488 0.00181463803500721 -0.048283781351869295 -0.04611433173512754 -0.04729985246609196 -10.773038177284834 -0.006139438034430261 
-0.005452273183421499 -0.02649693759076855 0.028452118244480146 -0.03124648831461681 -0.010752098929818439 0.03173740605095974 -0.5581208859064662 1.4073752422171806 -1.370462525747482 -0.23793587456700616 3.692667122829011 0.28168620379036924 -0.5025429448699446 -1.733413700350358 0.5205120789697911 -1.1005910134268626 -1.044921848842049 -0.43023643971737713 -0.488390123395687 11.754992987724016 -0.17470920777974233 0.5733051620252518 -1.3841996478126728 -0.8803166252370243 0.7612494817404797 -17.152898933293606 -0.1325932405097516 -0.4519643832056519 0.9565642363584754 -14.794237469772318 74.52230840495686 10.58918215288821 2.1748457220594255 20.747469842823712 15.688600038871584 94.45123951855926 27.02882817443832 -0.30157728589632843 -5.031072328885722 4.487331629482265 -0.13416825677858885 -1.5944318949583982 -0.0009763851166388647 -0.024738747617098145 -56.2342545000709 -0.022492450286752032 0.018278928442806708 -56.24130234995749 -38.786314355618956 -0.009367939381465702 0.03126516042501634 0.0058149042188493 -0.03808884922577721 -0.03763620755779573 -0.013909408980233497 -6.572006274091931e-05 0.04650413671857865 -36.679614452422875 -0.0015747226023758235 -0.03728406375131887 -0.0045947018920306434 -0.001854163917238047 0.01127266954692156 -0.03819913395437966 -0.01877391360886524 -0.023124592293044418 -19.755546782403574 0.0032669370919954296 -0.02263057147059105 -0.00016945618689360033 -0.005104716993539679 0.017456867649428234 0.01640095474543775 0.046998108261619854 -0.02805101863049969 24.089872926257257 0.04106383744685169 -0.007407652654469021 28.84196993410639 0.02736130639679656 0.009923636725114352 28.820035478060312 0.04327707246561889 -0.03806480466799124 4.770744669935881 1.5151413480103904 13.797142009233813 -77.55696020535896 17.816944086238884 -10.252763128641945 -49.96050658987847 20.287729426625962 -99.8992350060416 -30.885417903064216 -1.2562947463361085 2.4846567283773573 -0.4632274287856678 0.06218095343459866 -8.1452764172418 0.02176353492500299 -0.023116311620979834 44.590961001465686 0.014896395220538766 -0.04803088448773012 44.560288691981846 12.426267915688646 0.028198913850521416 -0.033409677672962296 0.04683526415821014 -0.0122311279024095 0.03210349810471799 -0.026976706504480055 0.0452282695420436 0.040645409865337025 11.11015531044915 -0.011987423546593734 -0.01021898726732673 0.025130036058578827 0.00019172811030564396 0.0015728471346598354 0.02087760229453904 0.04213483537257954 0.005519722407013275 4.77642665509273 0.002696617507934466 0.007975614100186733 0.031444905176614635 -0.014900884459765187 -0.031980639861255204 -0.0226998687765982 0.04193055711194381 -0.018313645611704295 -5.578092156831069 -0.022130966386329998 0.0002677295317759738 -6.761578386089476 -0.03602137108675446 -0.01830429197982969 -6.711790510375582 0.03462762423616643 -0.02186031555171329 0.027639299145594737 -0.04843207067632114 0.015639125754721615 8.049329681535417 3.446431310039851 -19.17858080078829 -0.04933766299389384 10.408087948914481 0.032363056765151374 -5.606830476408839 -15.668756034539665 3.178936311202088 -0.009672164650262756 -0.0035473363257609815 0.04532335426303726 0.03555483025636271 4.661727772146504 -0.016246625059940845 12.481688927518222 -8.276108114765137 6.887152128418821 -0.04643102469716682 46.36187304205225 -0.010083747822602034 -4.307596139636906 -14.76220241242911 -3.8464973926763824 -0.04798443533086498 -0.01089934450070055 0.02037470414562153 0.02382274747949842 -10.790322059979307 -0.042806124226925465 
